<?xml version="1.0" encoding="UTF-8"?>
<svg width="80px" height="80px" viewBox="0 0 80 80" version="1.1" xmlns="http://www.w3.org/2000/svg" xmlns:xlink="http://www.w3.org/1999/xlink">
    <!-- Generator: Sketch 59.1 (86144) - https://sketch.com -->
    <title>nextcloud-talk</title>
    <desc>Created with Sketch.</desc>
    <g id="nextcloud-talk" stroke="none" stroke-width="1" fill="none" fill-rule="evenodd">
        <g id="Group" transform="translate(0.000000, 22.000000)" fill="#428BCA" fill-rule="nonzero">
            <path d="M40.5,0 C50.7172679,0 59,8.28273213 59,18.5 C59,28.7172679 50.7172679,37 40.5,37 C30.2827321,37 22,28.7172679 22,18.5 C22,8.28273213 30.2827321,0 40.5,0 Z M40.5,7.06092716 C34.1823745,7.06092716 29.0609272,12.1823745 29.0609272,18.5 C29.0609272,24.8176255 34.1823745,29.9390728 40.5,29.9390728 C46.8176255,29.9390728 51.9390728,24.8176255 51.9390728,18.5 C51.9390728,12.1823745 46.8176255,7.06092716 40.5,7.06092716 Z" id="XMLID_107_"></path>
            <path d="M68.5,8 C74.8512746,8 80,13.372583 80,20 C80,26.627417 74.8512746,32 68.5,32 C62.1487254,32 57,26.627417 57,20 C57,13.372583 62.1487254,8 68.5,8 Z M68.5,15.0432513 C65.8765273,15.0432513 63.7497825,17.2624633 63.7497825,20 C63.7497825,22.7375367 65.8765273,24.9567487 68.5,24.9567487 C71.1234727,24.9567487 73.2502175,22.7375367 73.2502175,20 C73.2502175,17.2624633 71.1234727,15.0432513 68.5,15.0432513 Z" id="XMLID_106_"></path>
            <path d="M11.5,8 C17.8512746,8 23,13.372583 23,20 C23,26.627417 17.8512746,32 11.5,32 C5.14872538,32 0,26.627417 0,20 C0,13.372583 5.14872538,8 11.5,8 Z M11.5,15.0432513 C8.87652733,15.0432513 6.74978252,17.2624633 6.74978252,20 C6.74978252,22.7375367 8.87652733,24.9567487 11.5,24.9567487 C14.1234727,24.9567487 16.2502175,22.7375367 16.2502175,20 C16.2502175,17.2624633 14.1234727,15.0432513 11.5,15.0432513 Z" id="XMLID_105_"></path>
        </g>
    </g>
</svg>